HIERARCHY
ROOT Hips
{
  OFFSET 5.84602e-005 68.8428 3.50346
  CHANNELS 6 Xposition Yposition Zposition Zrotation Xrotation Yrotation
  JOINT Spine
  {
    OFFSET 0 8.597 -4.6522
    CHANNELS 3 Zrotation Xrotation Yrotation
    JOINT Spine1
    {
      OFFSET 0 7.8454 0.4098
      CHANNELS 3 Zrotation Xrotation Yrotation
      JOINT Spine2
      {
        OFFSET 0 9.7078 -2.1609
        CHANNELS 3 Zrotation Xrotation Yrotation
        JOINT Neck
        {
          OFFSET 0 21.8761 -0.4549
          CHANNELS 3 Zrotation Xrotation Yrotation
          JOINT Head
          {
            OFFSET 0 12.3537 3.3602
            CHANNELS 3 Zrotation Xrotation Yrotation
            End Site
            {
              OFFSET 0.0001 18.9506 0.5657
            }
          }
        }
        JOINT LeftShoulder
        {
          OFFSET 2.2086 21.1115 7.2329
          CHANNELS 3 Zrotation Xrotation Yrotation
          JOINT LeftArm
          {
            OFFSET 13.1193 3.0282 -4.8998
            CHANNELS 3 Zrotation Xrotation Yrotation
            JOINT LeftForeArm
            {
              OFFSET 27.4081 -0.0973053 -0.2375
              CHANNELS 3 Zrotation Xrotation Yrotation
              JOINT LeftHand
              {
                OFFSET 22.8641 0.0662994 -0.1369
                CHANNELS 3 Zrotation Xrotation Yrotation
                JOINT LeftHandIndex1
                {
                  OFFSET 8.8614 0.775009 2.4612
                  CHANNELS 3 Zrotation Xrotation Yrotation
                  JOINT LeftHandIndex2
                  {
                    OFFSET 3.3146 -0.808304 0.5841
                    CHANNELS 3 Zrotation Xrotation Yrotation
                    JOINT LeftHandIndex3
                    {
                      OFFSET 2.2628 -0.552002 0.3989
                      CHANNELS 3 Zrotation Xrotation Yrotation
                      End Site
                      {
                        OFFSET 1.6102 -0.4807 0.2612
                      }
                    }
                  }
                }
                JOINT LeftHandMiddle1
                {
                  OFFSET 8.9937 0.895004 0.2143
                  CHANNELS 3 Zrotation Xrotation Yrotation
                  JOINT LeftHandMiddle2
                  {
                    OFFSET 4.0984 0.0113983 -0.0242
                    CHANNELS 3 Zrotation Xrotation Yrotation
                    JOINT LeftHandMiddle3
                    {
                      OFFSET 2.2716 0.00689697 -0.0138001
                      CHANNELS 3 Zrotation Xrotation Yrotation
                      End Site
                      {
                        OFFSET 2.0404 -0.1441 0.0027
                      }
                    }
                  }
                }
                JOINT LeftHandRing1
                {
                  OFFSET 8.5234 0.597198 -2.0164
                  CHANNELS 3 Zrotation Xrotation Yrotation
                  JOINT LeftHandRing2
                  {
                    OFFSET 3.7188 -0.188293 -0.2328
                    CHANNELS 3 Zrotation Xrotation Yrotation
                    JOINT LeftHandRing3
                    {
                      OFFSET 2.1191 -0.106598 -0.1332
                      CHANNELS 3 Zrotation Xrotation Yrotation
                      End Site
                      {
                        OFFSET 1.8737 -0.2304 -0.0886
                      }
                    }
                  }
                }
                JOINT LeftHandPinky1
                {
                  OFFSET 7.9094 -0.601089 -3.4825
                  CHANNELS 3 Zrotation Xrotation Yrotation
                  JOINT LeftHandPinky2
                  {
                    OFFSET 2.2874 -0.477005 -0.6314
                    CHANNELS 3 Zrotation Xrotation Yrotation
                    JOINT LeftHandPinky3
                    {
                      OFFSET 1.6774 -0.349396 -0.4633
                      CHANNELS 3 Zrotation Xrotation Yrotation
                      End Site
                      {
                        OFFSET 1.4888 -0.4091 -0.3416
                      }
                    }
                  }
                }
                JOINT LeftHandThumb1
                {
                  OFFSET 1.833 -1.3875 1.3896
                  CHANNELS 3 Zrotation Xrotation Yrotation
                  JOINT LeftHandThumb2
                  {
                    OFFSET 3.4129 -1.121 2.5732
                    CHANNELS 3 Zrotation Xrotation Yrotation
                    JOINT LeftHandThumb3
                    {
                      OFFSET 2.2474 -0.804199 1.6192
                      CHANNELS 3 Zrotation Xrotation Yrotation
                      End Site
                      {
                        OFFSET 1.6527 -0.5689 1.1317
                      }
                    }
                  }
                }
              }
            }
          }
        }
        JOINT RightShoulder
        {
          OFFSET -2.2086 21.1115 7.2329
          CHANNELS 3 Zrotation Xrotation Yrotation
          JOINT RightArm
          {
            OFFSET -13.1216 3.0287 -4.9007
            CHANNELS 3 Zrotation Xrotation Yrotation
            JOINT RightForeArm
            {
              OFFSET -27.4081 -0.0973053 -0.2375
              CHANNELS 3 Zrotation Xrotation Yrotation
              JOINT RightHand
              {
                OFFSET -22.8641 0.0664063 -0.1369
                CHANNELS 3 Zrotation Xrotation Yrotation
                JOINT RightHandIndex1
                {
                  OFFSET -8.8614 0.774994 2.4612
                  CHANNELS 3 Zrotation Xrotation Yrotation
                  JOINT RightHandIndex2
                  {
                    OFFSET -3.3146 -0.808304 0.5841
                    CHANNELS 3 Zrotation Xrotation Yrotation
                    JOINT RightHandIndex3
                    {
                      OFFSET -2.2628 -0.552002 0.3989
                      CHANNELS 3 Zrotation Xrotation Yrotation
                      End Site
                      {
                        OFFSET -1.6102 -0.4807 0.2612
                      }
                    }
                  }
                }
                JOINT RightHandMiddle1
                {
                  OFFSET -8.9937 0.894989 0.2143
                  CHANNELS 3 Zrotation Xrotation Yrotation
                  JOINT RightHandMiddle2
                  {
                    OFFSET -4.0984 0.0113983 -0.0242
                    CHANNELS 3 Zrotation Xrotation Yrotation
                    JOINT RightHandMiddle3
                    {
                      OFFSET -2.2716 0.00691223 -0.0138001
                      CHANNELS 3 Zrotation Xrotation Yrotation
                      End Site
                      {
                        OFFSET -2.0404 -0.1441 0.0027
                      }
                    }
                  }
                }
                JOINT RightHandRing1
                {
                  OFFSET -8.5234 0.597198 -2.0164
                  CHANNELS 3 Zrotation Xrotation Yrotation
                  JOINT RightHandRing2
                  {
                    OFFSET -3.7188 -0.188309 -0.2328
                    CHANNELS 3 Zrotation Xrotation Yrotation
                    JOINT RightHandRing3
                    {
                      OFFSET -2.1191 -0.106598 -0.1332
                      CHANNELS 3 Zrotation Xrotation Yrotation
                      End Site
                      {
                        OFFSET -1.8737 -0.2304 -0.0886
                      }
                    }
                  }
                }
                JOINT RightHandPinky1
                {
                  OFFSET -7.9094 -0.601105 -3.4825
                  CHANNELS 3 Zrotation Xrotation Yrotation
                  JOINT RightHandPinky2
                  {
                    OFFSET -2.2874 -0.477005 -0.6314
                    CHANNELS 3 Zrotation Xrotation Yrotation
                    JOINT RightHandPinky3
                    {
                      OFFSET -1.6774 -0.349396 -0.4633
                      CHANNELS 3 Zrotation Xrotation Yrotation
                      End Site
                      {
                        OFFSET -1.4888 -0.4091 -0.3416
                      }
                    }
                  }
                }
                JOINT RightHandThumb1
                {
                  OFFSET -1.833 -1.38751 1.3896
                  CHANNELS 3 Zrotation Xrotation Yrotation
                  JOINT RightHandThumb2
                  {
                    OFFSET -3.41299 -1.12099 2.5732
                    CHANNELS 3 Zrotation Xrotation Yrotation
                    JOINT RightHandThumb3
                    {
                      OFFSET -2.24741 -0.804108 1.6192
                      CHANNELS 3 Zrotation Xrotation Yrotation
                      End Site
                      {
                        OFFSET -1.6527 -0.5689 1.1317
                      }
                    }
                  }
                }
              }
            }
          }
        }
      }
    }
  }
  JOINT RightUpLeg
  {
    OFFSET -9.1966 3.8861 -0.7581
    CHANNELS 3 Zrotation Xrotation Yrotation
    JOINT RightLeg
    {
      OFFSET -0.7359 -41.0265 0
      CHANNELS 3 Zrotation Xrotation Yrotation
      JOINT RightFoot
      {
        OFFSET 0 -40.2855 0
        CHANNELS 3 Zrotation Xrotation Yrotation
        JOINT RightToeBase
        {
          OFFSET 0 -5.6122 11.7359
          CHANNELS 3 Zrotation Xrotation Yrotation
          End Site
          {
            OFFSET 0 0 7.8731
          }
        }
      }
    }
  }
  JOINT LeftUpLeg
  {
    OFFSET 9.1965 3.8864 -0.7581
    CHANNELS 3 Zrotation Xrotation Yrotation
    JOINT LeftLeg
    {
      OFFSET 0.7359 -41.0268 0
      CHANNELS 3 Zrotation Xrotation Yrotation
      JOINT LeftFoot
      {
        OFFSET 0 -40.2855 0
        CHANNELS 3 Zrotation Xrotation Yrotation
        JOINT LeftToeBase
        {
          OFFSET 0 -5.6122 11.7359
          CHANNELS 3 Zrotation Xrotation Yrotation
          End Site
          {
            OFFSET 0 0 7.8731
          }
        }
      }
    }
  }
}
MOTION
Frames:	6
Frame Time:	0.0333333
6.34916 4.49343 3.18656 90 0 -0 -9.00555 -0.209718 0.0656923 -18.0111 -0.427025 0.097722 -18.0111 -0.427025 0.0977219 -36.2683 25.2216 51.972 0.049987 0.0342315 0.0482254 -7.99905 -0.0485561 0.268289 -21.5988 23.9869 40.1337 -80.0968 4.92465 -90.8669 -25.8732 2.43052 0.272998 -5.1684e-015 1.13307e-014 -0 -3.18055e-015 4.57205e-015 3.18055e-015 -2.78299e-015 3.97569e-015 3.18055e-015 -5.1684e-015 1.13307e-014 -0 -0.0145951 -9.63169e-005 3.16246e-006 2.66814e-006 6.82589e-007 1.7451e-006 -5.1684e-015 1.13307e-014 -0 -0.0187931 -0.00117128 5.84041e-005 3.97569e-016 6.75868e-015 -6.36111e-015 -5.1684e-015 1.13307e-014 -0 -0.0122575 -0.00324487 0.000676034 4.37326e-015 1.78906e-015 -0 -5.1684e-015 1.13307e-014 -0 -3.18055e-015 4.57205e-015 3.18055e-015 -2.78299e-015 3.97569e-015 3.18055e-015 7.99917 -0.194711 -7.50594e-008 31.6469 13.3236 -37.163 -50.8397 -37.5085 101.249 6.96335 10.5974 -6.58973e-006 2.23907e-007 8.41797e-007 6.49067e-008 2.69402e-006 2.61278e-007 -3.68245e-007 3.03048e-007 2.94694e-007 -5.46256e-008 2.23907e-007 8.41797e-007 6.49067e-008 0.0149901 -9.15492e-005 -5.23973e-007 3.03051e-007 2.94687e-007 -5.46644e-008 2.23907e-007 8.41797e-007 6.49067e-008 0.0190014 -0.00119133 -5.51702e-005 3.03052e-007 2.94685e-007 -5.46776e-008 2.23907e-007 8.41797e-007 6.49067e-008 0.0122614 -0.00324457 -0.000674707 3.03048e-007 2.94689e-007 -5.46658e-008 2.23907e-007 8.41797e-007 6.49067e-008 2.69402e-006 2.61278e-007 -3.68245e-007 3.03048e-007 2.94694e-007 -5.46256e-008 -3.86941 -27.902 -2.78494 3.7641 45.4266 -4.42648 -12.7659 36.5695 3.68295 -1.59028e-015 -3.18055e-015 -7.95139e-016 13.0126 -43.316 77.0708 -3.89195 55.0927 5.01987 13.7408 35.2694 -2.31052 3.77168e-006 1.3747e-007 -4.29327e-007 
6.34916 4.49343 3.18656 90 0 -0 -9.00552 -0.209718 0.0656922 -18.0111 -0.427025 0.097722 -18.0111 -0.427025 0.0977219 -36.3416 25.2152 52.041 0.0497593 0.0340791 0.0480196 -7.99905 -0.0485561 0.268289 -21.5987 23.9869 40.1335 -79.7504 4.91934 -90.8966 -25.9949 2.41505 0.270508 2.56105e-006 1.45949e-006 -9.40523e-007 -3.50158e-006 -1.40897e-008 -1.62053e-006 4.02054e-006 -1.10157e-006 -2.38592e-006 2.56105e-006 1.45949e-006 -9.40523e-007 -0.0146065 -8.78932e-005 -4.78943e-006 4.02048e-006 -1.10126e-006 -2.38607e-006 2.56105e-006 1.45949e-006 -9.40523e-007 -0.0187575 -0.00117041 6.03334e-005 4.02044e-006 -1.10118e-006 -2.38614e-006 2.56105e-006 1.45949e-006 -9.40523e-007 -0.0122358 -0.00323257 0.000671569 1.36876e-006 -1.809e-006 -4.1537e-006 2.56105e-006 1.45949e-006 -9.40523e-007 -3.50158e-006 -1.40897e-008 -1.62053e-006 4.02054e-006 -1.10157e-006 -2.38592e-006 7.99917 -0.194711 -9.24594e-008 31.6469 13.3236 -37.163 -50.8394 -37.5083 101.25 6.9635 10.5974 5.31326e-006 9.09147e-007 8.8408e-007 -1.6388e-007 2.39097e-006 -3.34227e-008 -3.13625e-007 2.08792e-006 -3.28116e-007 -2.58998e-007 9.09147e-007 8.8408e-007 -1.6388e-007 0.0149821 -8.9979e-005 4.25286e-007 2.0879e-006 -3.2815e-007 -2.58957e-007 9.09147e-007 8.8408e-007 -1.6388e-007 0.0189966 -0.00118892 -5.47053e-005 2.08789e-006 -3.28156e-007 -2.58966e-007 9.09147e-007 8.8408e-007 -1.6388e-007 0.0122938 -0.00325439 -0.000673569 2.0879e-006 -3.28127e-007 -2.59022e-007 9.09147e-007 8.8408e-007 -1.6388e-007 2.39097e-006 -3.34227e-008 -3.13625e-007 2.08792e-006 -3.28116e-007 -2.58998e-007 -3.8694 -27.902 -2.78493 3.76406 45.4265 -4.42645 -12.7659 36.5695 3.68294 1.58817e-006 5.39633e-007 -4.95069e-006 13.0126 -43.316 77.0708 -3.89193 55.0926 5.01985 13.7408 35.2694 -2.31054 4.77083e-015 -3.18055e-015 -6.36111e-015 
6.34916 4.49343 3.18656 90 0 -0 -9.00552 -0.209718 0.0656922 -18.0111 -0.427025 0.097722 -18.0111 -0.427025 0.0977219 -36.415 25.2087 52.11 0.0495415 0.0339252 0.0477928 -7.99905 -0.0485561 0.268289 -21.5987 23.987 40.1334 -79.4034 4.91384 -90.9263 -26.1166 2.39957 0.26792 -3.42184e-006 -7.42888e-007 1.08728e-006 3.09426e-006 3.42969e-007 -4.93982e-006 -2.56371e-006 -1.46103e-006 9.30477e-007 -3.42184e-006 -7.42888e-007 1.08728e-006 -0.0146341 -9.23874e-005 -1.13575e-006 -2.56352e-006 -1.46115e-006 9.30292e-007 -3.42184e-006 -7.42888e-007 1.08728e-006 -0.0187345 -0.00117286 5.71603e-005 -2.56346e-006 -1.46117e-006 9.30263e-007 -3.42184e-006 -7.42888e-007 1.08728e-006 -0.0122893 -0.00325477 0.000666862 -2.56353e-006 -1.46108e-006 9.30384e-007 -3.42184e-006 -7.42888e-007 1.08728e-006 3.09426e-006 3.42969e-007 -4.93982e-006 -2.56371e-006 -1.46103e-006 9.30477e-007 7.99917 -0.194711 -9.24594e-008 31.6469 13.3236 -37.163 -50.8392 -37.5082 101.25 6.96366 10.5974 1.54379e-005 5.49152e-031 1.58282e-014 -1.98785e-015 1.59028e-015 1.4238e-014 -2.88238e-015 7.95139e-016 1.28465e-014 -1.78906e-015 5.49152e-031 1.58282e-014 -1.98785e-015 0.0149914 -9.11276e-005 8.97949e-006 7.95139e-016 1.93815e-015 5.96354e-016 5.49152e-031 1.58282e-014 -1.98785e-015 0.0189954 -0.00119015 -5.45207e-005 -7.95139e-016 -3.26752e-015 4.96962e-016 5.49152e-031 1.58282e-014 -1.98785e-015 0.0122864 -0.00325222 -0.000672715 8.62091e-035 2.48481e-017 -1.98785e-016 5.49152e-031 1.58282e-014 -1.98785e-015 1.59028e-015 1.4238e-014 -2.88238e-015 7.95139e-016 1.28465e-014 -1.78906e-015 -3.86941 -27.902 -2.78493 3.76406 45.4263 -4.42644 -12.7659 36.5696 3.68295 1.29723e-005 1.06358e-006 -4.11882e-006 13.0126 -43.316 77.0707 -3.89192 55.0924 5.01983 13.7408 35.2694 -2.31053 -7.29081e-007 1.31099e-006 -1.65449e-007 
6.34916 4.49343 3.18656 90 0 -0 -9.00552 -0.209718 0.0656922 -18.0111 -0.427025 0.097722 -18.0111 -0.427025 0.0977219 -36.4885 25.2022 52.1789 0.0493155 0.0337696 0.0475686 -7.99905 -0.0485561 0.268289 -21.5986 23.987 40.1332 -79.0559 4.90816 -90.9561 -26.2383 2.3841 0.265321 2.56635e-006 1.46255e-006 -9.20405e-007 2.78299e-015 -1.39149e-015 9.54166e-015 2.56635e-006 1.46255e-006 -9.20405e-007 2.56635e-006 1.46255e-006 -9.20405e-007 -0.0146057 -9.04294e-005 -2.74139e-006 2.56616e-006 1.46266e-006 -9.20221e-007 2.56635e-006 1.46255e-006 -9.20405e-007 -0.018782 -0.00117711 6.2727e-005 2.84143e-006 2.5446e-006 1.92408e-007 2.56635e-006 1.46255e-006 -9.20405e-007 -0.0122802 -0.00324992 0.000673625 2.56617e-006 1.46259e-006 -9.20313e-007 2.56635e-006 1.46255e-006 -9.20405e-007 2.78299e-015 -1.39149e-015 9.54166e-015 2.56635e-006 1.46255e-006 -9.20405e-007 7.99917 -0.194711 -9.24594e-008 31.6469 13.3236 -37.163 -50.8389 -37.5081 101.25 6.96381 10.5974 6.21537e-006 -7.95139e-016 9.93923e-016 1.98785e-016 -7.95139e-016 -5.96354e-016 1.98785e-016 -7.95139e-016 1.04362e-015 1.98785e-016 -7.95139e-016 9.93923e-016 1.98785e-016 0.0149952 -9.14292e-005 -1.29348e-006 -1.59028e-015 1.44119e-015 -4.96962e-016 -7.95139e-016 9.93923e-016 1.98785e-016 0.0190202 -0.00119271 -4.79472e-005 -7.95139e-016 -5.04416e-015 -1.98785e-016 -7.95139e-016 9.93923e-016 1.98785e-016 0.0122685 -0.00324715 -0.000675579 7.95139e-016 -3.35449e-016 9.93923e-017 -7.95139e-016 9.93923e-016 1.98785e-016 -7.95139e-016 -5.96354e-016 1.98785e-016 -7.95139e-016 1.04362e-015 1.98785e-016 -3.8694 -27.9021 -2.78493 3.76407 45.4264 -4.42646 -12.7659 36.5695 3.68294 -1.19271e-015 0 1.59028e-015 13.0126 -43.316 77.0708 -3.89196 55.0923 5.01986 13.7409 35.2695 -2.31055 -1.25279e-006 2.02365e-006 -4.90314e-007 
6.34916 4.49343 3.18656 90 0 -0 -9.00555 -0.209717 0.0656922 -18.0111 -0.427025 0.097722 -18.0111 -0.427025 0.0977219 -36.5618 25.1955 52.2478 0.0490961 0.033622 0.0473774 -7.99905 -0.0485561 0.268289 -21.5985 23.9871 40.133 -78.7077 4.90227 -90.9858 -26.3601 2.36863 0.262711 -1.19271e-015 1.59028e-015 3.18055e-015 -8.76938e-007 7.66289e-007 1.76711e-007 2.89849e-007 1.0364e-006 1.09267e-006 -1.19271e-015 1.59028e-015 3.18055e-015 -0.014619 -8.94842e-005 -1.43438e-006 2.92019e-007 1.03627e-006 1.09281e-006 -1.19271e-015 1.59028e-015 3.18055e-015 -0.0187912 -0.00117969 5.411e-005 1.59028e-015 -1.98785e-015 6.36111e-015 -1.19271e-015 1.59028e-015 3.18055e-015 -0.0123065 -0.0032575 0.00067341 2.38542e-015 -2.78299e-015 6.36111e-015 -1.19271e-015 1.59028e-015 3.18055e-015 -8.76938e-007 7.66289e-007 1.76711e-007 2.89849e-007 1.0364e-006 1.09267e-006 7.99917 -0.194711 -9.23933e-008 31.6469 13.3236 -37.163 -50.8386 -37.5079 101.251 6.96397 10.5974 -4.93229e-006 -9.09153e-007 -8.84072e-007 1.63889e-007 3.03051e-007 2.94691e-007 -5.46298e-008 -2.08792e-006 3.28131e-007 2.59009e-007 -9.09153e-007 -8.84072e-007 1.63889e-007 0.015009 -9.22523e-005 -3.08988e-006 -2.0879e-006 3.28165e-007 2.58968e-007 -9.09153e-007 -8.84072e-007 1.63889e-007 0.0190061 -0.00119158 -5.59308e-005 -2.08789e-006 3.28171e-007 2.58976e-007 -9.09153e-007 -8.84072e-007 1.63889e-007 0.0122765 -0.00324879 -0.000676572 -2.08789e-006 3.28142e-007 2.59032e-007 -9.09153e-007 -8.84072e-007 1.63889e-007 3.03051e-007 2.94691e-007 -5.46298e-008 -2.08792e-006 3.28131e-007 2.59009e-007 -3.86937 -27.902 -2.78492 3.76404 45.4262 -4.42644 -12.7659 36.5696 3.68295 -1.98785e-016 -3.18055e-015 6.95746e-016 13.0126 -43.316 77.0708 -3.89187 55.0922 5.0198 13.7408 35.2695 -2.31056 9.42005e-008 1.82742e-007 -5.71106e-008 
6.34916 4.49343 3.18656 90 0 -0 -9.00552 -0.209718 0.0656922 -18.0111 -0.427025 0.097722 -18.0111 -0.427025 0.0977219 -36.6351 25.1888 52.3167 0.0488707 0.0334734 0.0471513 -7.99905 -0.0485561 0.268289 -21.5985 23.9871 40.1329 -78.359 4.89621 -91.0156 -26.4819 2.35316 0.26006 8.86323e-007 -7.90387e-007 -1.86769e-007 1.98785e-016 1.17283e-014 -1.27222e-014 5.1684e-015 1.98785e-016 -3.18055e-015 8.86323e-007 -7.90387e-007 -1.86769e-007 -0.0145917 -9.03743e-005 -2.35205e-006 7.95139e-016 3.77691e-015 -3.18055e-015 8.86323e-007 -7.90387e-007 -1.86769e-007 -0.0187509 -0.00116894 6.68754e-005 -1.98785e-016 1.0138e-014 -3.18055e-015 8.86323e-007 -7.90387e-007 -1.86769e-007 -0.0123009 -0.00325915 0.000676492 -2.38542e-015 -8.34896e-015 3.18055e-015 8.86323e-007 -7.90387e-007 -1.86769e-007 1.98785e-016 1.17283e-014 -1.27222e-014 5.1684e-015 1.98785e-016 -3.18055e-015 7.99917 -0.194711 -9.24594e-008 31.6469 13.3236 -37.163 -50.8384 -37.5077 101.251 6.96413 10.5974 1.51543e-005 3.03052e-007 2.9469e-007 -5.46309e-008 2.69402e-006 2.61243e-007 -3.68274e-007 3.03052e-007 2.9469e-007 -5.46309e-008 3.03052e-007 2.9469e-007 -5.46309e-008 0.0149971 -9.15455e-005 3.21834e-006 3.03055e-007 2.94683e-007 -5.46697e-008 3.03052e-007 2.9469e-007 -5.46309e-008 0.0189756 -0.00118992 -6.17811e-005 3.03055e-007 2.94681e-007 -5.46828e-008 3.03052e-007 2.9469e-007 -5.46309e-008 0.0122563 -0.00324256 -0.000674235 3.03051e-007 2.94685e-007 -5.46711e-008 3.03052e-007 2.9469e-007 -5.46309e-008 2.69402e-006 2.61243e-007 -3.68274e-007 3.03052e-007 2.9469e-007 -5.46309e-008 -3.8694 -27.9021 -2.78492 3.76408 45.4262 -4.42645 -12.7659 36.5695 3.68292 -0 0 2.68359e-015 13.0125 -43.316 77.0707 -3.89186 55.092 5.01979 13.7408 35.2695 -2.31053 1.88401e-007 3.65485e-007 -1.14221e-007 
